<mxfile host="Electron" agent="Mozilla/5.0 (Windows NT 10.0; Win64; x64) AppleWebKit/537.36 (KHTML, like Gecko) draw.io/24.7.5 Chrome/126.0.6478.183 Electron/31.3.0 Safari/537.36" version="24.7.5">
  <diagram id="Y2N6PIRxHx6CrjyT46Iy" name="Page-1">
    <mxGraphModel dx="972" dy="860" grid="1" gridSize="10" guides="1" tooltips="1" connect="1" arrows="1" fold="1" page="1" pageScale="1" pageWidth="827" pageHeight="1169" math="0" shadow="0">
      <root>
        <mxCell id="0" />
        <mxCell id="1" parent="0" />
        <mxCell id="start" value="User interacts with the system" style="rounded=1;whiteSpace=wrap;html=1;" parent="1" vertex="1">
          <mxGeometry x="100" y="50" width="160" height="60" as="geometry" />
        </mxCell>
        <mxCell id="upload_pdf" value="Upload PDF (/upload-pdf)" style="rounded=1;whiteSpace=wrap;html=1;fillColor=#b0e3e6;strokeColor=#0e8088;" parent="1" vertex="1">
          <mxGeometry x="100" y="150" width="160" height="60" as="geometry" />
        </mxCell>
        <mxCell id="validate_pdf" value="Validate File" style="rounded=1;whiteSpace=wrap;html=1;" parent="1" vertex="1">
          <mxGeometry x="300" y="150" width="160" height="60" as="geometry" />
        </mxCell>
        <mxCell id="invalid_pdf" value="Error: Invalid file format" style="rounded=1;whiteSpace=wrap;html=1;" parent="1" vertex="1">
          <mxGeometry x="300" y="250" width="160" height="60" as="geometry" />
        </mxCell>
        <mxCell id="process_pdf" value="Process File with PdfReader" style="rounded=1;whiteSpace=wrap;html=1;" parent="1" vertex="1">
          <mxGeometry x="500" y="150" width="160" height="60" as="geometry" />
        </mxCell>
        <mxCell id="extract_text" value="Extract Text" style="rounded=1;whiteSpace=wrap;html=1;" parent="1" vertex="1">
          <mxGeometry x="700" y="150" width="160" height="60" as="geometry" />
        </mxCell>
        <mxCell id="no_text_error" value="Error: No extractable text" style="rounded=1;whiteSpace=wrap;html=1;" parent="1" vertex="1">
          <mxGeometry x="700" y="250" width="160" height="60" as="geometry" />
        </mxCell>
        <mxCell id="store_text" value="Store Text in Document Content" style="rounded=1;whiteSpace=wrap;html=1;" parent="1" vertex="1">
          <mxGeometry x="900" y="150" width="160" height="60" as="geometry" />
        </mxCell>
        <mxCell id="upload_success" value="Success: PDF Processed" style="rounded=1;whiteSpace=wrap;html=1;" parent="1" vertex="1">
          <mxGeometry x="1100" y="150" width="160" height="60" as="geometry" />
        </mxCell>
        <mxCell id="chat_check" value="Chat Query (/chat): Check Document Uploaded" style="rounded=1;whiteSpace=wrap;html=1;fillColor=#b0e3e6;strokeColor=#0e8088;" parent="1" vertex="1">
          <mxGeometry x="100" y="350" width="160" height="60" as="geometry" />
        </mxCell>
        <mxCell id="no_document_error" value="Error: No Document Uploaded" style="rounded=1;whiteSpace=wrap;html=1;" parent="1" vertex="1">
          <mxGeometry x="300" y="450" width="160" height="60" as="geometry" />
        </mxCell>
        <mxCell id="process_query" value="Process Query" style="rounded=1;whiteSpace=wrap;html=1;" parent="1" vertex="1">
          <mxGeometry x="500" y="350" width="160" height="60" as="geometry" />
        </mxCell>
        <mxCell id="query_openai" value="Query OpenAI API" style="rounded=1;whiteSpace=wrap;html=1;" parent="1" vertex="1">
          <mxGeometry x="700" y="350" width="160" height="60" as="geometry" />
        </mxCell>
        <mxCell id="valid_response" value="Valid Response: Return Answer" style="rounded=1;whiteSpace=wrap;html=1;" parent="1" vertex="1">
          <mxGeometry x="900" y="300" width="160" height="60" as="geometry" />
        </mxCell>
        <mxCell id="openai_error" value="Error: OpenAI Issue" style="rounded=1;whiteSpace=wrap;html=1;" parent="1" vertex="1">
          <mxGeometry x="900" y="400" width="160" height="60" as="geometry" />
        </mxCell>
        <mxCell id="start_to_upload_pdf" style="edgeStyle=orthogonalEdgeStyle;rounded=0;orthogonalLoop=1;" parent="1" source="start" target="upload_pdf" edge="1">
          <mxGeometry relative="1" as="geometry" />
        </mxCell>
        <mxCell id="upload_pdf_to_validate_pdf" style="edgeStyle=orthogonalEdgeStyle;rounded=0;orthogonalLoop=1;" parent="1" source="upload_pdf" target="validate_pdf" edge="1">
          <mxGeometry relative="1" as="geometry" />
        </mxCell>
        <mxCell id="validate_pdf_to_invalid_pdf" style="edgeStyle=orthogonalEdgeStyle;rounded=0;orthogonalLoop=1;" parent="1" source="validate_pdf" target="invalid_pdf" edge="1">
          <mxGeometry relative="1" as="geometry" />
        </mxCell>
        <mxCell id="validate_pdf_to_process_pdf" style="edgeStyle=orthogonalEdgeStyle;rounded=0;orthogonalLoop=1;" parent="1" source="validate_pdf" target="process_pdf" edge="1">
          <mxGeometry relative="1" as="geometry" />
        </mxCell>
        <mxCell id="process_pdf_to_extract_text" style="edgeStyle=orthogonalEdgeStyle;rounded=0;orthogonalLoop=1;" parent="1" source="process_pdf" target="extract_text" edge="1">
          <mxGeometry relative="1" as="geometry" />
        </mxCell>
        <mxCell id="extract_text_to_no_text_error" style="edgeStyle=orthogonalEdgeStyle;rounded=0;orthogonalLoop=1;" parent="1" source="extract_text" target="no_text_error" edge="1">
          <mxGeometry relative="1" as="geometry" />
        </mxCell>
        <mxCell id="extract_text_to_store_text" style="edgeStyle=orthogonalEdgeStyle;rounded=0;orthogonalLoop=1;" parent="1" source="extract_text" target="store_text" edge="1">
          <mxGeometry relative="1" as="geometry" />
        </mxCell>
        <mxCell id="store_text_to_upload_success" style="edgeStyle=orthogonalEdgeStyle;rounded=0;orthogonalLoop=1;" parent="1" source="store_text" target="upload_success" edge="1">
          <mxGeometry relative="1" as="geometry" />
        </mxCell>
        <mxCell id="chat_check_to_no_document_error" style="edgeStyle=orthogonalEdgeStyle;rounded=0;orthogonalLoop=1;" parent="1" source="chat_check" target="no_document_error" edge="1">
          <mxGeometry relative="1" as="geometry" />
        </mxCell>
        <mxCell id="chat_check_to_process_query" style="edgeStyle=orthogonalEdgeStyle;rounded=0;orthogonalLoop=1;" parent="1" source="chat_check" target="process_query" edge="1">
          <mxGeometry relative="1" as="geometry" />
        </mxCell>
        <mxCell id="process_query_to_query_openai" style="edgeStyle=orthogonalEdgeStyle;rounded=0;orthogonalLoop=1;" parent="1" source="process_query" target="query_openai" edge="1">
          <mxGeometry relative="1" as="geometry" />
        </mxCell>
        <mxCell id="query_openai_to_valid_response" style="edgeStyle=orthogonalEdgeStyle;rounded=0;orthogonalLoop=1;" parent="1" source="query_openai" target="valid_response" edge="1">
          <mxGeometry relative="1" as="geometry" />
        </mxCell>
        <mxCell id="query_openai_to_openai_error" style="edgeStyle=orthogonalEdgeStyle;rounded=0;orthogonalLoop=1;" parent="1" source="query_openai" target="openai_error" edge="1">
          <mxGeometry relative="1" as="geometry" />
        </mxCell>
        <mxCell id="m86hzeax6SAJfVHLKmPA-2" value="&lt;span style=&quot;font-size: 16px;&quot;&gt;&lt;b&gt;Flow diagram on the working of chatbot&lt;/b&gt;&lt;/span&gt;" style="text;html=1;align=center;verticalAlign=middle;resizable=0;points=[];autosize=1;strokeColor=#6c8ebf;fillColor=#dae8fc;" vertex="1" parent="1">
          <mxGeometry x="410" y="10" width="330" height="30" as="geometry" />
        </mxCell>
        <mxCell id="m86hzeax6SAJfVHLKmPA-3" value="&lt;b&gt;&lt;font style=&quot;font-size: 16px;&quot;&gt;Component Diagram&lt;/font&gt;&lt;/b&gt;" style="text;html=1;align=center;verticalAlign=middle;resizable=0;points=[];autosize=1;strokeColor=#6c8ebf;fillColor=#dae8fc;" vertex="1" parent="1">
          <mxGeometry x="590" y="630" width="180" height="30" as="geometry" />
        </mxCell>
        <mxCell id="m86hzeax6SAJfVHLKmPA-4" value="" style="rounded=0;whiteSpace=wrap;html=1;" vertex="1" parent="1">
          <mxGeometry x="490" y="680" width="380" height="570" as="geometry" />
        </mxCell>
        <mxCell id="m86hzeax6SAJfVHLKmPA-5" value="The application is built using FastAPI" style="rounded=0;whiteSpace=wrap;html=1;" vertex="1" parent="1">
          <mxGeometry x="620" y="700" width="120" height="60" as="geometry" />
        </mxCell>
        <mxCell id="m86hzeax6SAJfVHLKmPA-6" value="It has endpoints for uploading a PDF (&lt;code&gt;/upload-pdf&lt;/code&gt;) and interacting with OpenAI&#39;s API (&lt;code&gt;/chat&lt;/code&gt;)." style="rounded=0;whiteSpace=wrap;html=1;" vertex="1" parent="1">
          <mxGeometry x="590" y="790" width="190" height="70" as="geometry" />
        </mxCell>
        <mxCell id="m86hzeax6SAJfVHLKmPA-7" value="The application uses Docker for containerization." style="rounded=0;whiteSpace=wrap;html=1;" vertex="1" parent="1">
          <mxGeometry x="590" y="890" width="190" height="70" as="geometry" />
        </mxCell>
        <mxCell id="m86hzeax6SAJfVHLKmPA-8" value="&lt;strong&gt;Initialization&lt;/strong&gt;:&lt;span style=&quot;background-color: initial;&quot;&gt;Load dependencies from&amp;nbsp;&lt;/span&gt;&lt;code style=&quot;background-color: initial;&quot;&gt;requirements.txt&lt;/code&gt;" style="rounded=0;whiteSpace=wrap;html=1;align=center;" vertex="1" parent="1">
          <mxGeometry x="570" y="980" width="220" height="100" as="geometry" />
        </mxCell>
        <mxCell id="m86hzeax6SAJfVHLKmPA-9" value="Initialize FastAPI and configure the application (e.g., static files, templates, and OpenAI setup)." style="rounded=0;whiteSpace=wrap;html=1;" vertex="1" parent="1">
          <mxGeometry x="608.75" y="1110" width="161.25" height="80" as="geometry" />
        </mxCell>
      </root>
    </mxGraphModel>
  </diagram>
</mxfile>
